<?xml version="1.0" standalone="no"?>
<!DOCTYPE svg PUBLIC "-//W3C//DTD SVG 20010904//EN"
 "http://www.w3.org/TR/2001/REC-SVG-20010904/DTD/svg10.dtd">
<svg version="1.0" xmlns="http://www.w3.org/2000/svg"
 width="512.000000pt" height="512.000000pt" viewBox="0 0 512.000000 512.000000"
 preserveAspectRatio="xMidYMid meet">
<metadata>
Created by potrace 1.14, written by Peter Selinger 2001-2017
</metadata>
<g transform="translate(0.000000,512.000000) scale(0.100000,-0.100000)"
fill="#000000" stroke="none">
<path d="M665 4775 l-25 -24 0 -2191 0 -2191 25 -24 24 -25 1551 0 1551 0 24
25 25 24 0 271 0 271 -25 24 c-32 33 -78 33 -110 0 -25 -24 -25 -24 -25 -240
l0 -215 -1440 0 -1440 0 0 2080 0 2080 1120 0 1120 0 0 -295 0 -296 25 -24 24
-25 296 0 295 0 0 -535 0 -536 25 -24 c15 -16 36 -25 55 -25 19 0 40 9 55 25
l25 24 0 593 0 593 -343 342 -342 343 -1233 0 -1233 0 -24 -25z m2720 -435
l180 -180 -183 0 -182 0 0 180 c0 99 1 180 3 180 1 0 83 -81 182 -180z"/>
<path d="M1146 4299 c-20 -16 -26 -29 -26 -59 0 -30 6 -43 26 -59 23 -18 41
-21 136 -21 102 0 110 1 133 25 16 15 25 36 25 55 0 19 -9 40 -25 55 -23 24
-31 25 -133 25 -95 0 -113 -3 -136 -21z"/>
<path d="M1625 4295 c-16 -15 -25 -36 -25 -55 0 -19 9 -40 25 -55 l24 -25 351
0 351 0 24 25 c16 15 25 36 25 55 0 19 -9 40 -25 55 l-24 25 -351 0 -351 0
-24 -25z"/>
<path d="M1146 3979 c-20 -16 -26 -29 -26 -59 0 -30 6 -43 26 -59 23 -18 41
-21 136 -21 102 0 110 1 133 25 16 15 25 36 25 55 0 19 -9 40 -25 55 -23 24
-31 25 -133 25 -95 0 -113 -3 -136 -21z"/>
<path d="M1625 3975 c-16 -15 -25 -36 -25 -55 0 -19 9 -40 25 -55 l24 -25 351
0 351 0 24 25 c16 15 25 36 25 55 0 19 -9 40 -25 55 l-24 25 -351 0 -351 0
-24 -25z"/>
<path d="M1785 3655 l-25 -24 0 -1071 0 -1071 25 -24 24 -25 1391 0 1391 0 24
25 c16 15 25 36 25 55 0 51 -38 80 -105 80 l-55 0 0 935 0 936 -25 24 c-24 25
-26 25 -215 25 -189 0 -191 0 -215 -25 l-25 -24 0 -936 0 -935 -80 0 -80 0 0
535 0 536 -25 24 c-24 25 -26 25 -215 25 -189 0 -191 0 -215 -25 l-25 -24 0
-536 0 -535 -80 0 -80 0 0 695 0 696 -25 24 c-24 25 -26 25 -215 25 -189 0
-191 0 -215 -25 l-25 -24 0 -696 0 -695 -80 0 -80 0 0 295 0 296 -25 24 c-24
25 -26 25 -215 25 -189 0 -191 0 -215 -25 l-25 -24 0 -296 0 -295 -80 0 -80 0
0 1015 0 1016 -25 24 c-15 16 -36 25 -55 25 -19 0 -40 -9 -55 -25z m2535
-1175 l0 -880 -80 0 -80 0 0 880 0 880 80 0 80 0 0 -880z m-1280 -240 l0 -640
-80 0 -80 0 0 640 0 640 80 0 80 0 0 -640z m640 -160 l0 -480 -80 0 -80 0 0
480 0 480 80 0 80 0 0 -480z m-1280 -240 l0 -240 -80 0 -80 0 0 240 0 240 80
0 80 0 0 -240z"/>
<path d="M2266 1259 c-20 -16 -26 -29 -26 -59 0 -30 6 -43 26 -59 27 -21 31
-21 936 -21 l909 0 24 25 c16 15 25 36 25 55 0 19 -9 40 -25 55 l-24 25 -909
0 c-905 0 -909 0 -936 -21z"/>
</g>
</svg>
